<?xml version="1.0" encoding="UTF-8"?>
<!DOCTYPE svg PUBLIC "-//W3C//DTD SVG 1.1//EN" "http://www.w3.org/Graphics/SVG/1.1/DTD/svg11.dtd">
<!-- Creator: CorelDRAW 2019 (64-Bit) -->
<svg xmlns="http://www.w3.org/2000/svg" xml:space="preserve" width="50px" height="50px" version="1.1" style="shape-rendering:geometricPrecision; text-rendering:geometricPrecision; image-rendering:optimizeQuality; fill-rule:evenodd; clip-rule:evenodd"
viewBox="0 0 50 50"
 xmlns:xlink="http://www.w3.org/1999/xlink"
 xmlns:xodm="http://www.corel.com/coreldraw/odm/2003">
 <defs>
  <style type="text/css">
   <![CDATA[
    .fil0 {fill:#FEFEFE}
    .fil2 {fill:#1C1C1C}
    .fil1 {fill:#3C3C3C}
   ]]>
  </style>
 </defs>
 <g id="Layer_x0020_1">
  <metadata id="CorelCorpID_0Corel-Layer"/>
  <g id="_2328461492416">
   <path class="fil0" d="M9.78 32.17c-0.03,0.14 0.01,0.11 -0.11,0.13l-0.03 0.09c-0.52,0.96 -0.42,1.58 -0.01,2.46 0.36,0.23 0.45,0.68 1.33,0.9 0.66,0.17 15.26,0.07 16.3,0.07 3.11,0 6.22,0 9.33,0 1.33,0 2.8,0.16 3.45,-1.25 0.49,-1.05 0.11,-2.21 -0.81,-2.83 -0.13,-0.08 -0.22,-0.1 -0.36,-0.2 -1.12,-0.24 -5.9,-0.13 -7.39,-0.13l-15 0c-0.74,0 -4.99,-0.07 -5.53,0.06 -0.69,0.18 -0.96,0.64 -1.17,0.7z"/>
   <path class="fil0" d="M10.51 22.75l-0.12 0.07 -0.13 0.09 0.01 0.01c0,0.11 0.02,0.08 -0.1,0.04 -0.01,0.11 0.02,0.08 -0.1,0.05 0.02,0.11 0.04,0.09 -0.08,0.06 0.02,0.11 0.04,0.08 -0.07,0.07 0.01,0.1 0.04,0.08 -0.07,0.07 0.02,0.1 0.04,0.08 -0.06,0.07 0.02,0.11 0.05,0.09 -0.06,0.08 0.03,0.13 0.06,0.1 -0.06,0.1 -0.09,0.35 -0.34,0.58 -0.37,1.19 -0.04,0.57 0.16,1.02 0.33,1.38 0.12,0.08 0.42,0.66 1.33,0.89 0.65,0.17 14.98,0.07 16.02,0.07 3.07,0 6.13,0 9.2,0 1.71,0 2.71,0.24 3.65,-0.91 0.53,-0.65 0.59,-1.87 -0.01,-2.59 -0.12,-0.15 -0.47,-0.46 -0.53,-0.58 -1.02,-0.47 -2.04,-0.33 -3.32,-0.33l-23.78 0c-1.5,0 -1.07,0.12 -1.68,0.17z"/>
   <path class="fil0" d="M10.51 13.92l-0.12 0.07 -0.13 0.09c-0.1,0.18 -0.35,0.4 -0.48,0.42 -0.03,0.15 0.02,0.13 -0.11,0.13 0.04,0.12 0.08,0.1 -0.04,0.1 -0.46,1.03 -0.46,1.45 0,2.46 0.12,0.09 0.42,0.67 1.33,0.9 0.56,0.15 6,0.07 6.83,0.07l18.39 0c1.7,0 2.71,0.24 3.65,-0.91 0.54,-0.66 0.58,-1.88 -0.01,-2.59 -0.13,-0.16 -0.47,-0.46 -0.53,-0.58 -1.02,-0.47 -2.04,-0.33 -3.32,-0.33l-23.78 0c-0.29,0 -0.61,-0.02 -0.89,0.01 -0.32,0.02 -0.52,0.13 -0.79,0.16z"/>
   <path class="fil1" d="M9.63 26.03c-0.17,-0.36 -0.37,-0.81 -0.33,-1.38 0.03,-0.61 0.28,-0.84 0.37,-1.19 -0.04,-0.14 -0.07,-0.12 0.06,-0.1 -0.03,-0.12 -0.06,-0.1 0.06,-0.08 -0.02,-0.11 -0.04,-0.09 0.06,-0.07 -0.01,-0.11 -0.03,-0.09 0.07,-0.07 -0.01,-0.11 -0.03,-0.09 0.07,-0.07 -0.01,-0.11 -0.04,-0.09 0.08,-0.06 -0.03,-0.14 -0.04,-0.1 0.1,-0.05 -0.22,-0.06 -1.64,1.13 -0.81,3.2 0.33,0.8 1.29,1.34 2.02,1.45 0.55,0.08 22.8,-0.02 26.46,0.01 0.79,0.01 1.36,-0.12 1.89,-0.46 0.47,-0.28 0.79,-0.7 0.98,-1.28 0.21,-0.62 0.27,-0.75 0.14,-1.36 -0.16,-0.77 -0.47,-1.25 -1.16,-1.72 -0.6,-0.4 -1.02,-0.45 -1.92,-0.44 -1.54,0.01 -3.09,-0.02 -4.63,-0.02l-13.83 0c-1.52,0 -3.11,0.05 -4.63,0.01 -1.34,-0.04 -3.28,-0.16 -4.29,0.36 0.08,0.06 -0.01,0.03 0.12,0.04 0.61,-0.05 0.18,-0.17 1.68,-0.17l23.78 0c1.28,0 2.3,-0.14 3.32,0.33 -0.14,-0.14 0.15,-0.07 -0.26,-0.16 0.42,-0.07 2.15,1.19 1.47,3.04 -0.51,1.39 -1.49,1.63 -3.29,1.62 -3.26,0 -6.54,-0.03 -9.81,-0.01 -3.27,0.02 -6.62,0.07 -9.88,0.01 -1.63,-0.03 -3.28,0 -4.91,0 -1.12,0 -2.15,-0.08 -2.81,-0.93 -0.1,-0.13 -0.34,-0.54 -0.33,-0.71 0.09,0.42 0,0.11 0.16,0.26zm0.64 -3.11l-0.01 -0.01c0,-0.18 -0.04,-0.14 0.13,-0.09 -0.02,-0.01 0.08,-0.13 -0.1,0.01 -0.14,0.11 -0.13,-0.04 -0.02,0.09z"/>
   <path class="fil1" d="M9.63 17.19c-0.46,-1.01 -0.46,-1.43 0,-2.46 -0.1,-0.16 -0.07,-0.07 -0.22,0.17 -0.59,0.97 -0.33,2.12 0.31,2.97 0.7,0.94 2.12,0.97 3.65,0.93 2.97,-0.08 6.07,-0.01 9.05,-0.01l13.62 0c1.52,0 3,0.17 3.93,-0.63 0.77,-0.66 1.23,-2.12 0.57,-3.25 -0.64,-1.12 -1.45,-1.4 -3.19,-1.4l-18.18 0.02c-1.49,-0.01 -3.07,-0.05 -4.56,-0.01 -1.42,0.04 -3.13,-0.2 -4.22,0.36 0.08,0.06 -0.01,0.03 0.12,0.04 0.27,-0.03 0.47,-0.14 0.79,-0.16 0.28,-0.03 0.6,-0.01 0.89,-0.01l23.78 0c1.28,0 2.3,-0.14 3.32,0.33 -0.14,-0.14 0.15,-0.07 -0.26,-0.16 0.41,-0.07 1.13,0.75 1.31,1.05 0.65,1.07 0.22,2.76 -0.95,3.29 -0.66,0.29 -1.27,0.32 -2.11,0.32 -8.08,0 -16.33,-0.05 -24.4,0 -1.7,0.01 -2.85,-0.18 -3.36,-1.45 -0.06,0.1 -0.14,-0.16 0.11,0.06zm0.04 -2.56c-0.05,-0.17 -0.08,-0.13 0.11,-0.13 0.13,-0.02 0.38,-0.24 0.48,-0.42 0,-0.18 -0.04,-0.14 0.13,-0.09 -0.23,-0.07 -0.77,0.45 -0.72,0.64z"/>
   <path class="fil2" d="M9.63 34.85c-0.16,-0.15 -0.07,0.17 -0.16,-0.26 -0.07,0.38 0.6,1.09 1.03,1.32 0.65,0.37 1.22,0.35 2.11,0.35 3.24,0 25.65,0.05 26.09,-0.04 0.03,0 0.39,-0.1 0.46,-0.13 0.08,-0.04 0.29,-0.18 0.38,-0.24 1.3,-0.87 1.36,-2.47 0.71,-3.4 -0.16,-0.23 -0.39,-0.46 -0.62,-0.63 -0.01,0 -0.02,-0.02 -0.03,-0.03l-0.09 -0.05c-0.01,0 -0.03,-0.01 -0.04,-0.02l-0.42 -0.2c-0.26,-0.06 -0.14,-0.01 -0.18,0.02 0.14,0.1 0.23,0.12 0.36,0.2 0.92,0.62 1.3,1.78 0.81,2.83 -0.65,1.41 -2.12,1.25 -3.45,1.25 -3.11,0 -6.22,0 -9.33,0 -1.04,0 -15.64,0.1 -16.3,-0.07 -0.88,-0.22 -0.97,-0.67 -1.33,-0.9z"/>
   <path class="fil1" d="M9.63 34.85c-0.41,-0.88 -0.51,-1.5 0.01,-2.46 -0.07,-0.06 -0.07,-0.21 -0.27,0.2 -0.22,0.48 -0.27,0.97 -0.24,1.51 0.04,0.69 0.37,1.27 0.74,1.59 0.12,0.11 0.25,0.17 0.35,0.24 0.01,0.01 0.03,0.02 0.04,0.03 0.37,0.27 0.61,0.42 1.18,0.49 0.79,0.09 10.65,0.03 11.54,0.01 1.51,-0.04 3.1,0.01 4.63,0.01l10.44 -0.01c0.57,0 1.25,-0.14 1.68,-0.47 1.61,-1.22 1.33,-3.11 0.35,-4.06l-0.46 -0.32c-0.02,-0.01 -0.03,-0.01 -0.05,-0.02l-0.42 -0.19c-0.71,-0.37 -2.01,-0.23 -2.97,-0.23l-13.9 0c-1.53,0 -3.09,0.04 -4.63,0.02 -1.06,-0.02 -5.92,-0.14 -6.77,0.14 -0.25,0.08 -1.31,0.64 -1.21,0.97 -0.04,-0.17 -0.07,-0.13 0.11,-0.13 0.21,-0.06 0.48,-0.52 1.17,-0.7 0.54,-0.13 4.79,-0.06 5.53,-0.06l15 0c1.49,0 6.27,-0.11 7.39,0.13 0.04,-0.03 -0.08,-0.08 0.18,-0.02l0.42 0.2c0.01,0.01 0.03,0.02 0.04,0.02l0.09 0.05c0.01,0.01 0.02,0.03 0.03,0.03 0.23,0.17 0.46,0.4 0.62,0.63 0.65,0.93 0.59,2.53 -0.71,3.4 -0.09,0.06 -0.3,0.2 -0.38,0.24 -0.07,0.03 -0.43,0.13 -0.46,0.13 -0.44,0.09 -22.85,0.04 -26.09,0.04 -0.89,0 -1.46,0.02 -2.11,-0.35 -0.43,-0.23 -1.1,-0.94 -1.03,-1.32 0.09,0.43 0,0.11 0.16,0.26z"/>
   <path class="fil2" d="M39.29 22.91c0.06,0.12 0.41,0.43 0.53,0.58 0.6,0.72 0.54,1.94 0.01,2.59 -0.94,1.15 -1.94,0.91 -3.65,0.91 -3.07,0 -6.13,0 -9.2,0 -1.04,0 -15.37,0.1 -16.02,-0.07 -0.91,-0.23 -1.21,-0.81 -1.33,-0.89 -0.16,-0.15 -0.07,0.16 -0.16,-0.26 -0.01,0.17 0.23,0.58 0.33,0.71 0.66,0.85 1.69,0.93 2.81,0.93 1.63,0 3.28,-0.03 4.91,0 3.26,0.06 6.61,0.01 9.88,-0.01 3.27,-0.02 6.55,0.01 9.81,0.01 1.8,0.01 2.78,-0.23 3.29,-1.62 0.68,-1.85 -1.05,-3.11 -1.47,-3.04 0.41,0.09 0.12,0.02 0.26,0.16z"/>
   <path class="fil2" d="M39.29 14.08c0.06,0.12 0.4,0.42 0.53,0.58 0.59,0.71 0.55,1.93 0.01,2.59 -0.94,1.15 -1.95,0.91 -3.65,0.91l-18.39 0c-0.83,0 -6.27,0.08 -6.83,-0.07 -0.91,-0.23 -1.21,-0.81 -1.33,-0.9 -0.25,-0.22 -0.17,0.04 -0.11,-0.06 0.51,1.27 1.66,1.46 3.36,1.45 8.07,-0.05 16.32,0 24.4,0 0.84,0 1.45,-0.03 2.11,-0.32 1.17,-0.53 1.6,-2.22 0.95,-3.29 -0.18,-0.3 -0.9,-1.12 -1.31,-1.05 0.41,0.09 0.12,0.02 0.26,0.16z"/>
  </g>
 </g>
</svg>
